<?xml version="1.0" encoding="UTF-8" standalone="no"?>
<!-- Created with Inkscape (http://www.inkscape.org/) -->

<svg
   width="4000"
   height="4000"
   viewBox="0 0 1058.3333 1058.3334"
   version="1.1"
   id="svg5"
   inkscape:version="1.1.1 (3bf5ae0d25, 2021-09-20)"
   sodipodi:docname="GridPaperTrans.svg"
   inkscape:export-filename="C:\Users\tkore\OneDrive\unityprojects\ShaderDemo\Assets\Textures\GridPaperTrans.png"
   inkscape:export-xdpi="96"
   inkscape:export-ydpi="96"
   xmlns:inkscape="http://www.inkscape.org/namespaces/inkscape"
   xmlns:sodipodi="http://sodipodi.sourceforge.net/DTD/sodipodi-0.dtd"
   xmlns="http://www.w3.org/2000/svg"
   xmlns:svg="http://www.w3.org/2000/svg">
  <sodipodi:namedview
     id="namedview7"
     pagecolor="#ffffff"
     bordercolor="#666666"
     borderopacity="1.0"
     inkscape:pageshadow="2"
     inkscape:pageopacity="0.0"
     inkscape:pagecheckerboard="true"
     inkscape:document-units="px"
     showgrid="false"
     units="px"
     inkscape:zoom="0.38885732"
     inkscape:cx="1746.1417"
     inkscape:cy="1959.5876"
     inkscape:window-width="3840"
     inkscape:window-height="2066"
     inkscape:window-x="1609"
     inkscape:window-y="-11"
     inkscape:window-maximized="1"
     inkscape:current-layer="layer2" />
  <defs
     id="defs2" />
  <g
     inkscape:label="Layer 1"
     inkscape:groupmode="layer"
     id="layer1" />
  <g
     inkscape:groupmode="layer"
     id="layer2"
     inkscape:label="grid">
    <path
       d="M 0,0 0,1058.3333 M 26.458333,0 l 0,1058.3333 M 52.916665,0 l 0,1058.3333 M 79.374998,0 l 0,1058.3333 M 105.83333,0 l 0,1058.3333 M 132.29166,0 l 0,1058.3333 M 158.75,0 l 0,1058.3333 M 185.20833,0 l 0,1058.3333 M 211.66666,0 l 0,1058.3333 M 238.12499,0 l 0,1058.3333 M 264.58333,0 l 0,1058.3333 M 291.04166,0 l 0,1058.3333 M 317.49999,0 l 0,1058.3333 M 343.95832,0 l 0,1058.3333 M 370.41665,0 l 0,1058.3333 M 396.87499,0 l 0,1058.3333 M 423.33332,0 l 0,1058.3333 M 449.79165,0 l 0,1058.3333 M 476.24998,0 l 0,1058.3333 M 502.70832,0 l 0,1058.3333 M 529.16665,0 l 0,1058.3333 M 555.62498,0 l 0,1058.3333 M 582.08331,0 l 0,1058.3333 M 608.54165,0 l 0,1058.3333 M 634.99998,0 l 0,1058.3333 M 661.45831,0 l 0,1058.3333 M 687.91664,0 l 0,1058.3333 M 714.37498,0 l 0,1058.3333 M 740.83331,0 l 0,1058.3333 M 767.29164,0 l 0,1058.3333 M 793.74997,0 l 0,1058.3333 M 820.20831,0 l 0,1058.3333 M 846.66664,0 l 0,1058.3333 M 873.12497,0 l 0,1058.3333 M 899.5833,0 l 0,1058.3333 M 926.04164,0 l 0,1058.3333 M 952.49997,0 l 0,1058.3333 M 978.9583,0 l 0,1058.3333 M 1005.4166,0 l 0,1058.3333 M 1031.875,0 l 0,1058.3333 M 1058.3333,0 l 0,1058.3333 M 0,0 1058.3333,0 M 0,26.458333 l 1058.3333,0 M 0,52.916665 l 1058.3333,0 M 0,79.374998 l 1058.3333,0 M 0,105.83333 l 1058.3333,0 M 0,132.29166 l 1058.3333,0 M 0,158.75 l 1058.3333,0 M 0,185.20833 l 1058.3333,0 M 0,211.66666 l 1058.3333,0 M 0,238.12499 l 1058.3333,0 M 0,264.58333 l 1058.3333,0 M 0,291.04166 l 1058.3333,0 M 0,317.49999 l 1058.3333,0 M 0,343.95832 l 1058.3333,0 M 0,370.41665 l 1058.3333,0 M 0,396.87499 l 1058.3333,0 M 0,423.33332 l 1058.3333,0 M 0,449.79165 l 1058.3333,0 M 0,476.24998 l 1058.3333,0 M 0,502.70832 l 1058.3333,0 M 0,529.16665 l 1058.3333,0 M 0,555.62498 l 1058.3333,0 M 0,582.08331 l 1058.3333,0 M 0,608.54165 l 1058.3333,0 M 0,634.99998 l 1058.3333,0 M 0,661.45831 l 1058.3333,0 M 0,687.91664 l 1058.3333,0 M 0,714.37498 l 1058.3333,0 M 0,740.83331 l 1058.3333,0 M 0,767.29164 l 1058.3333,0 M 0,793.74997 l 1058.3333,0 M 0,820.20831 l 1058.3333,0 M 0,846.66664 l 1058.3333,0 M 0,873.12497 l 1058.3333,0 M 0,899.5833 l 1058.3333,0 M 0,926.04164 l 1058.3333,0 M 0,952.49997 l 1058.3333,0 M 0,978.9583 l 1058.3333,0 M 0,1005.4166 l 1058.3333,0 M 0,1031.875 l 1058.3333,0 M 0,1058.3333 l 1058.3333,0"
       style="fill:none;stroke:#0000de;stroke-width:1.32292px;stroke-opacity:1"
       id="path2636"
       inkscape:export-filename="C:\Users\tkore\OneDrive\unityprojects\IsingGame\Assets\Textures\GridPaper.png"
       inkscape:export-xdpi="96"
       inkscape:export-ydpi="96" />
  </g>
</svg>
